<?xml version="1.0" encoding="UTF-8"?><svg id="a" xmlns="http://www.w3.org/2000/svg" viewBox="0 0 1080 1080"><defs><style>.b{fill:#e8a62c;}.c{fill:#1d1d1b;}</style></defs><path class="c" d="M543.05,475.37c-.18,0-.36,0-.54,0-12.1-.21-23.02-7.33-28.08-18.33l-102.74-223.43v235.41h-62.98V89.75c0-14.8,10.3-27.6,24.76-30.76,14.45-3.17,29.16,4.16,35.34,17.61l135.47,294.59L692.57,75.63c6.55-13.05,21.2-19.89,35.4-16.52,14.2,3.36,24.23,16.05,24.23,30.64V469.02h-62.98V222.74l-118.03,235.25c-5.35,10.66-16.25,17.37-28.14,17.37Z"/><path class="b" d="M775.12,780.34c10.47-.22,18.57-.6,24.09-1.15,56.5-5.65,122.48-47.7,122.48-147.6,0-49.55-22.23-89.91-62.59-113.65-28.82-16.95-57.13-19.87-60.26-20.14-.92-.08-1.84-.12-2.77-.12H221.29V56.14h-62.98v473.01c0,17.39,14.1,31.49,31.49,31.49H794.17c4.2,.61,19.79,3.36,34.51,12.48,20.21,12.51,30.03,31.63,30.03,58.46,0,68.18-41.21,82.48-65.77,84.94-5.8,.58-22.87,1.47-71.85,.88-28.51-.34-54.02-1.02-54.28-1.03-8.47-.23-16.72,2.99-22.81,8.91-6.09,5.93-9.53,14.07-9.53,22.57v238.08h62.98v-205.9c1.51,.03,3.32,.05,4.89,.07l127.34,221.52c5.83,10.13,16.43,15.8,27.33,15.8,5.32,0,10.72-1.35,15.67-4.2,15.08-8.67,20.27-27.92,11.61-42.99l-109.16-189.9Z"/><path class="c" d="M513.91,918.3c25.63-37.29,39.58-83.31,39.58-131.69,0-55.45-18.31-107.82-51.55-147.47-34.58-41.25-81.04-63.96-130.81-63.96s-96.23,22.71-130.81,63.96c-33.24,39.65-51.55,92.02-51.55,147.47s18.31,107.82,51.55,147.47c34.58,41.25,81.04,63.96,130.81,63.96,35.09,0,68.43-11.5,97.23-32.62l20.81,36.2c5.82,10.13,16.42,15.8,27.33,15.8,5.32,0,10.72-1.35,15.66-4.2,15.08-8.67,20.27-27.92,11.61-42.99l-29.86-51.94Zm-142.78,16.76c-65.83,0-119.39-66.6-119.39-148.45s53.56-148.45,119.39-148.45,119.39,66.6,119.39,148.45c0,24.45-4.86,47.47-13.31,67.83l-69.69-121.24c-8.67-15.08-27.92-20.27-42.99-11.61-15.08,8.67-20.27,27.92-11.61,42.99l83.87,145.89c-18.85,15.5-41.4,24.59-65.64,24.59Z"/></svg>